<svg width="24" height="24" viewBox="0 0 24 24" fill="none" xmlns="http://www.w3.org/2000/svg">
  <path d="M16 7C16 9.21 14.21 11 12 11C9.79 11 8 9.21 8 7C8 4.79 9.79 3 12 3C14.21 3 16 4.79 16 7ZM4 19V20H20V19C20 15.13 16.87 12 13 12H11C7.13 12 4 15.13 4 19ZM19 17.76V18H5V17.76C5.61 16.54 6.62 15.54 7.84 14.93C9.22 14.25 10.99 13.91 12 13.91C13.01 13.91 14.78 14.25 16.16 14.93C17.38 15.54 18.39 16.54 19 17.76ZM12 5C10.9 5 10 5.9 10 7C10 8.1 10.9 9 12 9C13.1 9 14 8.1 14 7C14 5.9 13.1 5 12 5Z" fill="currentColor"/>
  <path d="M18 8V11H21V13H18V16H16V13H13V11H16V8H18Z" fill="currentColor"/>
</svg> 