<svg id="svg" fill="#666" stroke="#666" width="200px" height="200px" version="1.1" viewBox="144 144 512 512" xmlns="http://www.w3.org/2000/svg">
    <g id="IconSvg_bgCarrier" stroke-width="0"></g>
    <g id="IconSvg_tracerCarrier" stroke-linecap="round" stroke-linejoin="round" stroke="#CCCCCC"></g>
     <g id="IconSvg_iconCarrier">
      <path xmlns="http://www.w3.org/2000/svg" d="m586.57 194.14h-373.14c-19.68 0-35.621 15.941-35.621 35.621v252.59c0 19.68 15.941 35.621 35.621 35.621h17.023l17.613 77.145c1.1797 5.0195 4.9219 8.9531 9.9375 10.332 1.1797 0.29688 2.4609 0.49219 3.6406 0.49219 3.7383 0 7.3789-1.5742 10.137-4.3281l79.312-83.641h235.57c19.68 0 35.621-15.941 35.621-35.621v-252.59c-0.097656-19.68-16.137-35.621-35.719-35.621zm7.7734 288.21c0 4.3281-3.543 7.7734-7.7734 7.7734h-241.48-0.097656c-1.4766 0-2.9531 0.39453-4.4297 0.88672-0.29688 0.097657-0.58984 0.097657-0.88672 0.19531-0.6875 0.29688-1.2773 0.88672-1.8711 1.2773-0.88672 0.58984-1.8711 1.082-2.5586 1.7695 0 0-0.097656 0.097656-0.19531 0.097656l-65.535 69.078-14.27-62.582c-0.097656-0.39453-0.39453-0.6875-0.49219-1.082-0.29688-0.88672-0.6875-1.6719-1.1797-2.5586-0.39453-0.78906-0.88672-1.4766-1.4766-2.1641s-1.1797-1.2773-1.9688-1.7695c-0.6875-0.58984-1.3789-1.082-2.1641-1.4766-0.78906-0.39453-1.5742-0.6875-2.4609-0.98438-0.88672-0.29687-1.7695-0.49219-2.7539-0.58984-0.39453 0-0.78906-0.19531-1.1797-0.19531h-28.141c-4.3281 0-7.7734-3.543-7.7734-7.7734v-252.5c0-4.3281 3.543-7.7734 7.7734-7.7734h373.13c4.3281 0 7.7734 3.543 7.7734 7.7734z"></path>

      </g>
      </svg>