<?xml version="1.0" standalone="no"?>
<!DOCTYPE svg PUBLIC "-//W3C//DTD SVG 20010904//EN"
 "http://www.w3.org/TR/2001/REC-SVG-20010904/DTD/svg10.dtd">
<svg version="1.0" xmlns="http://www.w3.org/2000/svg"
 width="100.000000pt" height="100.000000pt" viewBox="0 0 100.000000 100.000000"
 preserveAspectRatio="xMidYMid meet">

<g transform="translate(0.000000,100.000000) scale(0.100000,-0.100000)"
fill="#000000" stroke="none">
<path d="M587 808 c-73 -43 -98 -152 -50 -217 37 -48 71 -66 128 -66 155 0
215 205 83 285 -44 27 -112 26 -161 -2z m144 -67 c49 -49 30 -129 -34 -150
-74 -25 -141 41 -116 116 21 65 101 83 150 34z"/>
<path d="M260 730 c-52 -31 -73 -66 -78 -127 -4 -45 0 -59 21 -92 63 -95 190
-94 261 2 29 39 29 125 0 163 -52 70 -139 93 -204 54z m133 -68 c66 -59 23
-162 -68 -162 -34 0 -85 50 -85 84 0 88 91 134 153 78z"/>
<path d="M557 489 c-46 -11 -109 -42 -127 -63 -10 -13 -24 -15 -59 -10 -101
13 -259 -37 -296 -93 -26 -39 -31 -98 -11 -128 l16 -25 253 0 c272 0 277 1
277 52 l0 28 150 0 c137 0 152 2 170 20 43 43 16 136 -52 178 -73 45 -222 64
-321 41z m237 -70 c46 -13 99 -61 94 -86 -3 -16 -19 -18 -142 -21 l-139 -3
-31 30 c-17 16 -44 35 -61 41 l-30 12 28 14 c63 34 190 40 281 13z m-333 -84
c54 -19 89 -51 89 -82 l0 -23 -220 0 c-130 0 -220 4 -220 9 0 43 41 81 110
102 46 14 195 10 241 -6z"/>
</g>
</svg>
