<svg width="20" height="20" viewBox="0 0 20 20" fill="none" xmlns="http://www.w3.org/2000/svg">
  <path d="M10 6.66667C11.3833 6.66667 12.5 5.55001 12.5 4.16667C12.5 2.78334 11.3833 1.66667 10 1.66667C8.61668 1.66667 7.50001 2.78334 7.50001 4.16667C7.50001 5.55001 8.61668 6.66667 10 6.66667ZM10 8.33334C8.61668 8.33334 7.50001 9.45001 7.50001 10.8333C7.50001 12.2167 8.61668 13.3333 10 13.3333C11.3833 13.3333 12.5 12.2167 12.5 10.8333C12.5 9.45001 11.3833 8.33334 10 8.33334ZM10 15C8.61668 15 7.50001 16.1167 7.50001 17.5C7.50001 18.8833 8.61668 20 10 20C11.3833 20 12.5 18.8833 12.5 17.5C12.5 16.1167 11.3833 15 10 15Z" fill="currentColor"/>
</svg> 